inDegrees=no
num_controls=7
num_derivatives=13
num_iterations=210
num_multipliers=7
num_parameters=0
num_slacks=7
num_states=26
objective=6.187655
objective_accelerations=0.749178
objective_balance=0.050402
objective_effort=0.625630
objective_height=4.737840
objective_ligament=0.024606
solver_duration=2122.495328
status=Solve_Succeeded
success=true
DataType=double
version=3
OpenSimVersion=4.4-2022-07-23-0e9fedc
endheader
time	/jointset/ground_pelvis/pelvis_tilt/value	/jointset/ground_pelvis/pelvis_tx/value	/jointset/ground_pelvis/pelvis_ty/value	/jointset/hip_l/hip_flexion_l/value	/jointset/hip_l/hip_adduction_l/value	/jointset/hip_l/hip_rotation_l/value	/jointset/back/lumbar_extension/value	/jointset/patellofemoral_l/patellar_flexion_l/value	/jointset/knee_l/knee_flexion_l/value	/jointset/knee_l/knee_adduction_l/value	/jointset/knee_l/knee_rotation_l/value	/jointset/ankle_l/ankle_angle_l/value	/jointset/subtalar_l/subtalar_angle_l/value	/jointset/ground_pelvis/pelvis_tilt/speed	/jointset/ground_pelvis/pelvis_tx/speed	/jointset/ground_pelvis/pelvis_ty/speed	/jointset/hip_l/hip_flexion_l/speed	/jointset/hip_l/hip_adduction_l/speed	/jointset/hip_l/hip_rotation_l/speed	/jointset/back/lumbar_extension/speed	/jointset/patellofemoral_l/patellar_flexion_l/speed	/jointset/knee_l/knee_flexion_l/speed	/jointset/knee_l/knee_adduction_l/speed	/jointset/knee_l/knee_rotation_l/speed	/jointset/ankle_l/ankle_angle_l/speed	/jointset/subtalar_l/subtalar_angle_l/speed	/forceset/tau_hip_flexion_l	/forceset/tau_hip_adduction_l	/forceset/tau_hip_rotation_l	/forceset/tau_knee_flexion_l	/forceset/tau_ankle_angle_l	/forceset/tau_subtalar_angle_l	/forceset/tau_lumbar_extension	lambda_cid13_p0	lambda_cid13_p1	lambda_cid13_p2	lambda_cid13_p3	lambda_cid13_p4	lambda_cid13_p5	lambda_cid14_p0	/jointset/ground_pelvis/pelvis_tilt/accel	/jointset/ground_pelvis/pelvis_tx/accel	/jointset/ground_pelvis/pelvis_ty/accel	/jointset/hip_l/hip_flexion_l/accel	/jointset/hip_l/hip_adduction_l/accel	/jointset/hip_l/hip_rotation_l/accel	/jointset/back/lumbar_extension/accel	/jointset/patellofemoral_l/patellar_flexion_l/accel	/jointset/knee_l/knee_flexion_l/accel	/jointset/knee_l/knee_adduction_l/accel	/jointset/knee_l/knee_rotation_l/accel	/jointset/ankle_l/ankle_angle_l/accel	/jointset/subtalar_l/subtalar_angle_l/accel	gamma_cid13_p0	gamma_cid13_p1	gamma_cid13_p2	gamma_cid13_p3	gamma_cid13_p4	gamma_cid13_p5	gamma_cid14_p0
1	-0.2537336242938027	-0.1124402748095723	0.5969500475112934	1.711019913916021	-0.30423482908206	0.0179106049213017	-0.9599252771685612	1.519065247299147	1.519065247299146	0.05909368526831454	-0.1745212248364037	0.1706181796988707	0.05007840702821019	0.08767133974399417	0.01706018592230697	0.07717922155427143	-0.2895788733363754	-0.003986963257223289	-0.05299045992319863	6.694518117643218e-05	-0.1587715472145675	-0.158771547214568	-0.00697197008128567	-1.302598430625177e-05	0.03642325344794437	0.01081534838913379	-0.4856161126077176	-0.007377633901562941	-0.02227480123510047	-0.3485830220614333	0.1138148399647989	0.0360182697142969	0.4849280469767506	-16.55132700245856	-8.687856060472107	-3.703136552207414	11.90246426478929	-831.3324793810662	-59.80108994046866	-0.04038601989013331	1.03093018619043	0.005432512270286042	2.053249587181324	-6.528702065341086	-0.1109287651126843	-1.17848240021124	-0.01574755239946887	-5.593671750231106	-5.593671750231124	-0.9557395575767768	-0.02745018539025001	-0.4474605687207369	-0.2942405181073392	8.511874952264631e-09	-3.407566306257946e-08	-1.059367025039183e-07	-2.144679459985541e-08	-2.351075715514152e-08	-1.497867315322422e-08	1.809678570677013e-09
1.01	-0.2528056272061371	-0.1122693311386078	0.5978242798044511	1.707798487014155	-0.3042795144503039	0.01732345894418947	-0.9599249240076516	1.517198235555057	1.517198235555042	0.05897543862735097	-0.1745213588467325	0.1709599338669776	0.05017264643293003	0.09794417103979293	0.01713870070220492	0.09765296835880777	-0.3546823838561125	-0.004943186383380395	-0.06443484742154577	2.858137613664585e-06	-0.2146161679346023	-0.214616167934615	-0.01667181241379786	-1.384535144088102e-05	0.03190281737745709	0.008030301754798345	-0.4846590140376093	-0.007222137909718287	-0.02224864203155701	-0.3486620562504555	0.1138962818446364	0.03622973326600371	0.4844457305834505	-16.47444415404282	-8.802094837481427	-3.674714136927362	11.69232887891379	-830.8050415637815	-60.00183558982505	-0.04041668641595182	1.027873206836436	0.01057774624689589	2.042291050295013	-6.497557568850343	-0.08690442917584218	-1.126838098919329	-0.001863609837221915	-5.577662466453692	-5.577662466455479	-0.9762842447192273	0.01356414749718363	-0.4580526494603729	-0.2709463091863522	1.007130001820411e-08	-5.520359987404955e-08	-1.366580194393985e-07	-3.030814287902291e-08	-2.928696026317893e-08	-3.303110821629496e-08	1.423464443910792e-09
1.02	-0.2517744190844173	-0.1120972989627653	0.598902820330297	1.703926748602353	-0.3043335491183738	0.01662198485720713	-0.9599252365830555	1.514773216557054	1.514773216557057	0.0587603580283128	-0.1745215086587643	0.1712557401697296	0.0502389734566893	0.1083135465581089	0.01727788689788788	0.1180408680915931	-0.4196411753182455	-0.005856823221887727	-0.07585608189081254	-6.620208599036316e-05	-0.2703729979971981	-0.2703729979972233	-0.02633876169152683	-1.618632368719666e-05	0.02723368037706058	0.005232872196871509	-0.4837019154675692	-0.007066641917889641	-0.02222248282803779	-0.3487410904394738	0.1139777237244901	0.03644119681769801	0.4839634141900817	-16.40382485196716	-8.916464033812066	-3.644868626043117	11.50946132957086	-830.3582858511248	-60.20110950532246	-0.04045402382195887	1.050239030693789	0.01756679542735551	2.036080172831146	-6.499758253820272	-0.1024115075827492	-1.173851794395116	-0.01674218840761795	-5.5761136187433	-5.57611361874335	-0.9491609466202046	-0.0277545064126084	-0.4772007547024597	-0.2967171028255984	1.122402239696881e-08	-7.54371375394034e-08	-1.661756943091407e-07	-3.756029502592559e-08	-3.469944603781311e-08	-5.142523204574975e-08	1.272324439841436e-09
1.03	-0.250638962035437	-0.1119235260964811	0.6001847219268875	1.699406315704006	-0.3043964972629789	0.0158064338056201	-0.9599262666078676	1.511791214449373	1.511791214449342	0.05844880813243732	-0.1745216932353826	0.1715040221866578	0.05027724216494388	0.1188002991113062	0.01749122441555439	0.1383164553938561	-0.484404484548047	-0.006722834756137779	-0.08724732122574196	-0.000140235762183211	-0.3259989064009904	-0.3259989064010131	-0.03596121260624523	-1.799619685506876e-05	0.02238958738857139	0.002419045600064958	-0.4824064818138973	-0.006885181618252267	-0.02215469738898612	-0.3486737604257811	0.1141923809726593	0.03673813129081333	0.4832662483707598	-16.25922869193167	-9.087376909902808	-3.598617879797346	11.2050993439625	-829.5343719102873	-60.4799672822331	-0.04050039624044105	1.051258230799913	0.02538893558549457	2.01984057964749	-6.458479911056443	-0.07716377759466052	-1.120746042206765	-0.002798894485814554	-5.551552104296922	-5.551552104296524	-0.96730128161799	0.01397543259255358	-0.4929892317642558	-0.2739503834822128	1.237259474831335e-08	-9.566154868285811e-08	-1.956810871169877e-07	-4.479602680413167e-08	-4.010822041108604e-08	-6.982284249526971e-08	1.123583151309805e-09
